<svg width="1024" height="966" viewBox="0 0 1024 966" fill="none" xmlns="http://www.w3.org/2000/svg">
<g id="ChatGPT Image Aug 25, 2025, 04_52_13 PM 1_layerstyle">
<g id="Group">
<path id="Vector" fill-rule="evenodd" clip-rule="evenodd" d="M932.577 310.412C933.865 310.269 934.151 318.137 933.865 338.449C933.579 360.336 932.863 370.635 930.431 383.938C928.714 393.379 926.854 401.39 926.282 401.819C925.71 402.248 925.281 403.392 925.281 404.251C925.281 405.252 925.138 407.398 924.851 408.971C924.708 410.545 924.136 411.546 923.421 411.26C922.848 410.974 922.705 412.404 922.992 414.55C923.564 417.554 923.278 417.983 921.561 416.839C920.13 415.838 919.844 415.981 920.559 417.268C921.275 418.126 921.275 419.843 920.702 420.701C920.13 421.702 919.415 422.99 919.272 423.562C918.985 424.277 918.842 424.849 918.699 424.993C918.699 425.279 918.413 426.852 917.984 428.569C917.698 430.428 916.267 434.004 914.979 436.436C913.692 439.011 912.404 441.443 912.404 441.872C912.261 442.301 911.832 444.018 911.26 445.734C910.687 447.594 909.543 449.024 908.827 449.024C908.112 449.024 907.54 449.453 907.54 450.026C907.683 450.741 907.683 452.028 907.54 452.887C907.54 453.888 906.538 455.604 905.537 456.606C904.678 457.607 902.961 459.896 901.96 461.612C901.102 463.329 900.243 465.475 900.243 466.19C900.243 466.905 902.389 470.624 905.108 474.344C907.683 478.206 910.973 483.069 912.118 485.501C913.406 487.79 914.121 490.222 913.835 490.794C913.406 491.509 913.549 491.652 914.121 491.223C914.836 490.794 916.696 492.94 918.413 495.8C920.13 498.804 921.132 501.665 920.845 502.238C920.559 502.953 920.988 503.382 921.704 503.382C922.419 503.382 922.848 504.097 922.419 504.812C921.99 505.528 922.419 506.243 923.135 506.243C923.85 506.243 924.279 506.958 923.85 507.673C923.421 508.389 923.85 509.104 924.565 509.104C925.281 509.104 925.71 510.105 925.281 511.25C924.851 512.394 925.281 513.109 925.996 512.68C926.711 512.251 927.427 512.68 927.427 513.395C927.427 514.11 927.57 515.255 927.856 515.827C927.999 516.542 929 518.259 930.002 519.832C930.86 521.406 931.29 523.122 930.717 523.695C930.288 524.41 930.574 524.839 931.433 524.839C932.434 524.839 933.579 526.985 934.151 529.416C934.723 531.991 935.153 534.423 935.296 534.852C935.296 535.281 935.725 536.283 936.154 536.998C936.726 537.713 937.871 541.003 938.872 544.15C939.874 547.297 940.875 550.587 941.019 551.303C941.162 552.018 941.734 553.734 942.163 554.879C942.592 556.023 944.023 560.457 945.168 564.463C946.455 568.611 947.171 573.332 946.741 574.905C946.312 576.479 946.455 577.766 947.028 577.766C947.743 577.766 948.744 581.056 949.46 585.205C950.175 589.353 950.89 594.359 951.177 596.362C951.463 598.365 952.321 605.088 953.18 611.382C954.038 618.105 954.467 633.554 953.895 648.574C953.466 662.736 953.18 676.468 953.18 678.9C953.18 681.618 952.607 683.334 951.749 682.905C950.89 682.476 950.604 684.193 951.034 687.483C951.32 690.487 951.034 693.634 950.461 694.349C949.746 695.064 949.46 696.924 949.746 698.211C950.032 699.642 949.603 700.786 948.887 700.786C948.172 700.786 947.743 702.36 948.172 704.362C948.601 706.365 948.172 707.938 947.457 707.938C946.741 707.938 946.312 709.226 946.741 710.799C947.171 712.373 946.741 713.946 946.026 714.375C945.168 714.805 945.025 716.521 945.597 718.238C946.312 720.67 946.169 721.242 944.881 720.383C943.737 719.716 943.355 720.193 943.737 721.814C944.023 723.244 943.88 725.104 943.451 725.819C943.022 726.534 942.449 728.823 942.163 730.826C942.02 732.828 941.162 734.545 940.303 734.688C939.588 734.974 939.302 736.262 939.874 737.549C940.589 739.409 940.446 739.838 939.159 738.979C938.014 738.264 937.728 738.693 938.443 740.124C939.159 741.411 938.443 743.414 936.726 745.417C935.153 747.133 934.723 747.991 935.582 747.562C936.583 746.99 937.442 746.704 937.442 746.847C937.442 747.133 936.297 748.85 934.58 750.852C933.006 752.855 932.148 754.858 932.434 755.43C932.863 756.145 932.863 757.862 932.434 759.435C932.005 761.009 931.003 762.01 930.288 761.581C929.573 761.152 929.144 761.867 929.573 763.011C930.002 764.156 929.859 765.157 929.144 765.157C928.571 765.157 928.142 766.015 927.999 766.874C927.999 767.875 927.141 770.879 926.282 773.311C925.281 775.885 923.85 777.745 923.135 777.316C922.419 776.887 921.847 777.459 921.847 778.317C921.99 779.319 921.99 781.035 921.847 781.893C921.847 782.895 920.988 783.467 920.273 783.038C919.415 782.609 919.272 783.324 919.844 784.754C920.702 786.757 920.559 787.043 918.842 785.899C917.269 784.897 916.982 784.897 917.841 786.185C918.413 787.329 916.124 792.336 912.404 798.344C908.827 804.066 905.108 809.215 904.106 809.787C903.105 810.36 902.818 810.932 903.391 810.932C904.106 810.932 902.818 813.364 900.672 816.225C898.526 819.229 895.379 823.091 893.519 824.807C891.659 826.667 890.085 828.527 889.942 829.099C889.799 829.814 889.227 830.958 888.511 831.674C887.939 832.389 884.362 836.68 880.642 840.972C876.922 845.263 873.346 848.696 872.773 848.41C872.201 848.267 871.915 848.839 872.344 849.554C872.773 850.27 872.201 851.557 871.2 852.415C870.341 853.131 868.91 853.417 868.338 852.701C867.623 852.129 867.337 852.415 867.623 853.274C867.909 854.132 864.761 857.851 860.898 861.427C856.892 865.146 853.172 867.578 852.6 867.006C851.885 866.434 851.599 866.72 851.885 867.578C852.171 868.293 850.025 871.011 847.307 873.586C844.588 876.018 841.441 878.021 840.439 878.164C839.581 878.164 838.722 878.593 838.722 879.165C838.722 879.88 836.004 882.312 832.713 884.887C829.279 887.462 826.132 889.035 825.56 888.463C824.987 887.891 824.129 888.606 823.7 889.893C823.27 891.324 822.269 892.182 821.554 891.753C820.838 891.324 820.123 891.753 820.123 892.468C820.123 893.184 817.118 895.615 813.255 897.761C809.536 899.907 806.102 901.48 805.387 901.337C804.814 901.194 804.385 901.766 804.385 902.482C804.385 903.197 803.67 903.626 802.954 903.197C802.239 902.768 801.524 903.197 801.524 903.912C801.524 904.627 800.808 905.056 800.093 904.627C799.378 904.198 798.09 905.056 797.231 906.344C796.516 907.774 795.801 908.489 795.801 907.774C795.801 907.202 794.799 907.774 793.655 908.919C792.51 910.063 790.793 910.778 790.078 910.349C789.362 909.92 787.359 910.921 785.786 912.495C784.212 914.068 782.209 915.07 781.494 914.64C780.778 914.211 780.063 914.784 780.063 915.642C780.063 916.643 779.777 917.072 779.347 916.357C778.918 915.785 777.631 916.357 776.486 917.501C775.341 918.646 773.625 919.361 772.909 918.932C772.194 918.503 771.479 918.932 771.479 919.647C771.479 920.505 770.334 920.648 768.903 920.076C767.186 919.361 766.757 919.504 767.473 920.791C768.188 921.793 767.759 922.794 766.471 923.223C765.326 923.652 764.611 923.223 765.04 922.508C765.47 921.793 765.613 921.078 765.326 921.078C765.183 921.078 763.467 922.222 761.464 923.938C759.46 925.512 757.458 926.37 756.742 926.084C756.17 925.655 754.453 926.37 752.879 927.515C751.305 928.659 749.159 929.231 748.301 928.516C747.061 927.848 746.822 928.087 747.586 929.231C748.158 930.376 747.729 931.234 746.012 931.377C744.724 931.377 742.721 931.377 741.72 931.377C740.861 931.234 740.003 931.806 740.003 932.521C740.003 933.237 739.287 933.666 738.572 933.237C737.857 932.807 736.855 933.237 736.426 933.952C735.997 934.667 734.709 935.096 733.565 934.667C732.42 934.238 731.418 934.667 731.418 935.382C731.418 936.097 730.417 936.527 729.272 936.097C728.128 935.668 727.126 936.097 727.126 936.813C727.126 937.528 726.125 937.957 724.98 937.528C723.836 937.099 722.834 937.528 722.834 938.243C722.834 938.958 721.833 939.388 720.688 938.958C719.543 938.529 718.542 938.958 718.542 939.674C718.542 940.389 717.827 940.818 717.111 940.389C716.396 939.96 715.394 940.389 714.965 941.104C714.536 941.819 713.248 942.248 712.104 941.819C710.959 941.39 709.672 941.819 709.242 942.535C708.813 943.25 707.812 943.679 707.096 943.25C706.381 942.821 705.379 943.25 704.95 943.965C704.521 944.823 702.518 944.966 700.229 944.394C697.367 943.679 696.652 943.822 697.367 945.109C698.226 946.254 697.654 946.54 695.651 946.111C694.077 945.682 692.789 946.111 692.789 946.826C692.789 947.684 691.215 947.827 688.783 947.255C685.636 946.397 685.206 946.683 686.351 948.256C687.495 949.83 687.066 950.116 683.776 949.258C680.914 948.542 680.199 948.686 680.914 949.973C681.773 951.117 680.914 951.546 678.196 950.974C676.05 950.688 674.19 950.831 674.19 951.403C674.19 952.119 672.187 952.262 669.898 951.833C667.322 951.403 665.892 951.689 666.321 952.548C666.75 953.406 665.319 953.549 662.315 952.977C658.595 952.119 658.023 952.262 659.167 953.978C660.312 955.552 659.883 955.695 657.307 954.98C655.59 954.407 653.874 954.693 653.444 955.409C653.015 956.124 651.155 956.553 649.152 956.124C647.149 955.695 645.289 956.124 644.86 956.839C644.431 957.554 643 958.27 641.569 958.127C640.282 958.127 635.56 958.413 631.268 958.985C626.976 959.414 620.681 959.986 617.39 960.129C614.243 960.272 611.81 960.844 612.097 961.417C612.383 962.132 609.092 962.275 604.8 961.846C600.079 961.417 596.931 961.703 596.931 962.561C596.931 963.276 593.927 963.991 590.064 963.991C586.344 963.991 578.189 964.421 571.893 964.707C565.598 965.136 541.419 965.708 518.242 965.851C495.064 966.137 475.32 965.994 474.605 965.565C473.746 965.279 466.736 964.707 458.867 964.421C450.998 964.278 442.127 963.991 439.123 963.991C436.261 963.991 433.829 963.562 433.829 962.847C433.829 962.275 430.682 962.132 426.962 962.418C423.099 962.847 420.667 962.418 421.239 961.703C421.668 960.988 418.521 960.272 414.085 960.129C409.507 959.986 403.498 959.843 400.494 959.843C397.632 959.7 395.2 958.985 395.2 958.27C395.2 957.411 393.34 957.125 390.908 957.554C388.476 957.984 386.616 957.841 386.616 957.125C386.616 956.553 384.47 956.41 381.894 956.696C379.176 957.125 377.745 956.839 378.174 955.981C378.747 955.266 376.887 954.55 373.882 954.407C371.021 954.264 367.158 953.978 365.155 953.692C363.152 953.406 360.72 952.834 359.718 952.119C358.86 951.546 357 951.403 355.855 951.833C354.711 952.262 353.709 951.833 353.709 951.117C353.709 950.402 352.135 949.973 350.132 950.402C348.129 950.831 346.842 950.688 347.128 949.973C347.414 949.401 345.983 949.258 343.837 949.544C341.262 950.116 340.403 949.687 341.119 948.542C341.977 947.255 341.119 946.969 337.971 947.541C334.824 948.113 333.965 947.827 334.681 946.54C335.539 945.395 334.681 944.966 331.962 945.539C329.816 945.825 327.956 945.682 327.956 944.966C327.956 944.394 327.527 944.251 326.812 944.68C326.239 944.966 323.235 944.68 320.087 943.822C316.94 942.964 313.363 941.962 312.218 941.533C311.074 941.104 309.643 940.818 308.928 940.818C308.355 940.961 307.926 940.389 307.926 939.674C307.926 938.958 306.638 938.529 305.065 938.958C303.491 939.388 301.917 938.958 301.488 938.243C301.059 937.528 300.057 937.099 299.342 937.528C298.483 937.957 297.625 937.528 297.196 936.813C296.767 936.097 295.765 935.668 295.05 936.097C294.191 936.527 293.619 936.097 293.619 935.382C293.619 934.524 292.474 934.381 291.044 934.953C289.327 935.668 288.898 935.525 289.613 934.238C290.471 932.95 289.899 932.807 287.467 933.523C285.178 934.238 284.605 934.095 285.321 932.807C286.179 931.663 285.607 931.377 283.604 931.806C282.03 932.235 280.743 931.806 280.743 931.091C280.743 930.376 280.027 929.946 279.312 930.376C278.453 930.805 277.881 930.376 277.881 929.66C277.881 928.945 276.88 928.516 275.735 928.945C274.59 929.374 273.589 928.945 273.589 928.23C273.589 927.372 272.444 927.229 271.014 927.801C269.154 928.659 268.868 928.516 270.012 926.799C271.157 925.083 270.871 924.94 268.868 925.798C267.58 926.37 266.435 926.227 266.435 925.369C266.435 924.654 265.434 924.225 264.289 924.654C263.145 925.083 262.143 924.654 262.143 923.938C262.143 923.223 261.428 922.794 260.712 923.223C259.854 923.652 258.28 922.937 257.136 921.793C255.991 920.648 254.274 919.933 253.559 920.362C252.7 920.791 252.128 920.362 252.128 919.647C252.128 918.932 251.413 918.503 250.697 918.932C249.839 919.361 248.265 918.646 247.121 917.501C245.976 916.357 244.688 915.785 244.259 916.357C243.83 917.072 243.544 916.643 243.544 915.642C243.544 914.784 242.113 913.496 240.253 913.067C238.536 912.495 236.819 912.066 236.39 911.923C235.961 911.78 233.529 910.921 230.954 909.92C227.901 908.776 226.709 907.584 227.377 906.344C228.14 905.199 227.901 904.961 226.661 905.629C225.803 906.344 223.943 906.487 222.798 906.058C221.654 905.629 220.939 904.627 221.368 903.912C221.797 903.197 221.225 902.338 220.223 902.338C219.365 902.195 218.077 902.195 217.362 902.338C216.789 902.338 216.36 901.766 216.36 901.051C216.36 900.336 215.931 899.764 215.216 899.907C214.643 900.05 211.21 898.476 207.347 896.331C203.627 894.185 200.622 891.753 200.622 891.038C200.622 890.323 199.621 889.607 198.476 889.607C197.332 889.607 196.33 888.892 196.33 888.177C196.33 887.462 195.472 886.746 194.47 886.746C193.612 886.746 190.607 884.887 188.032 882.455C185.6 880.166 183.311 878.45 183.025 878.879C182.881 879.165 177.731 874.874 171.722 869.152C165.57 863.573 160.562 859.138 160.562 859.568C160.562 859.997 157.987 857.708 154.982 854.561C151.835 851.414 149.546 848.41 149.832 847.695C150.261 847.123 149.832 846.836 148.973 846.98C148.115 847.266 146.684 846.121 145.826 844.691C144.824 843.117 141.963 840.113 139.388 837.825C136.955 835.679 134.809 832.961 134.809 831.96C134.809 831.101 132.52 827.954 129.802 825.236C127.083 822.519 125.224 819.801 125.51 819.085C125.939 818.513 125.796 818.084 125.08 818.084C124.508 818.084 121.933 815.223 119.358 811.647C116.925 808.071 115.209 805.21 115.781 805.21C116.496 805.21 115.781 804.495 114.35 803.779C113.062 802.921 111.918 801.348 111.918 800.203C111.918 799.059 111.203 798.058 110.487 798.058C109.629 798.058 109.343 797.342 109.772 796.627C110.201 795.912 110.058 795.197 109.343 795.197C108.77 795.197 106.91 792.622 105.05 789.475C103.334 786.328 102.332 783.753 102.904 783.753C103.62 783.753 103.334 783.181 102.475 782.609C101.617 782.036 98.8984 777.745 96.4661 773.024C94.0339 768.304 92.4601 764.013 92.8893 763.297C93.3186 762.725 93.0324 762.296 92.174 762.296C91.1725 762.296 90.7433 761.581 91.1725 760.866C91.6017 760.15 91.3156 759.292 90.6002 759.006C89.8848 758.863 89.0264 757.432 88.7403 755.859C88.5972 754.285 87.8818 752.712 87.3095 752.283C86.8803 751.854 86.165 750.28 85.8788 748.707C85.7358 747.133 85.0204 745.56 84.5912 745.13C84.0189 744.701 81.8728 738.264 79.8698 730.826C77.7237 723.387 76.293 716.378 76.7222 715.377C77.1515 714.519 76.8653 713.946 76.15 714.375C75.2915 714.805 74.5762 713.946 74.5762 712.516C74.4331 711.228 74.1469 708.797 73.8608 707.223C73.5747 705.65 72.7162 701.501 72.0009 697.925C71.2855 694.349 70.8563 688.913 71.1424 685.766C71.5717 681.761 71.2855 680.76 70.284 682.19C69.4256 683.62 69.1394 681.475 69.4256 675.467C69.5687 670.746 69.4256 666.884 68.9964 667.17C68.5671 667.456 68.281 656.299 68.281 642.423C68.281 628.405 68.7102 616.246 69.2825 615.244C69.9979 614.386 70.1409 611.382 69.8548 608.807C69.4256 606.375 69.8548 599.652 70.5702 594.216C71.4286 588.638 74.1469 576.05 76.5792 565.893C79.1545 555.88 81.5867 547.726 82.159 547.726C82.8743 547.726 83.0174 547.011 82.5882 546.296C82.159 545.581 84.8773 537.284 88.4541 527.986C92.174 518.831 97.7538 506.386 100.901 500.521C104.049 494.656 107.34 489.077 108.198 488.362C109.056 487.504 109.915 485.93 110.201 484.786C110.487 483.642 111.775 481.782 113.062 480.781C114.35 479.779 114.779 479.064 114.064 479.064C113.206 478.921 113.778 478.349 115.065 477.634C116.496 476.775 117.355 475.488 116.925 474.773C116.496 474.057 116.782 473.342 117.641 473.342C118.356 473.342 118.928 472.484 118.642 471.483C118.499 470.624 119.215 469.909 120.073 470.052C121.074 470.338 121.647 470.052 121.218 469.337C120.931 468.765 123.077 464.616 126.225 460.039C130.374 454.174 132.806 451.885 135.096 451.885C136.955 451.885 140.532 451.313 142.964 450.455C147.114 449.167 147.686 448.452 147.686 444.304C147.686 441.872 146.97 435.149 146.255 429.713C145.54 424.134 144.681 415.122 144.109 409.687C143.537 404.108 141.963 390.661 140.389 379.647C138.815 368.632 136.383 354.185 134.809 347.461C133.236 340.738 130.803 333.014 129.516 330.296C128.371 327.578 126.654 324.145 126.082 322.714C124.937 320.569 125.51 320.569 132.234 323.286C136.383 325.003 143.108 327.721 147.257 329.437C151.549 331.154 154.267 333.014 153.695 333.872C153.123 334.73 153.552 334.873 154.839 334.015C156.127 333.3 158.559 333.586 160.991 334.73C163.138 335.875 164.997 337.162 164.854 337.734C164.854 338.449 165.284 338.736 165.856 338.592C166.571 338.449 168.431 338.736 170.148 339.308C172.008 339.88 173.439 341.024 173.439 341.739C173.439 342.455 174.011 342.884 174.869 342.455C175.585 342.026 176.3 342.455 176.3 343.17C176.3 343.885 176.872 344.314 177.731 343.885C178.446 343.456 179.162 343.885 179.162 344.6C179.162 345.316 179.734 345.745 180.592 345.316C181.308 344.887 182.023 345.316 182.023 346.031C182.023 346.746 182.595 347.175 183.454 346.746C184.169 346.317 184.884 346.746 184.884 347.461C184.884 348.177 185.457 348.606 186.315 348.177C187.031 347.747 187.746 348.32 187.746 349.178C187.746 350.179 188.175 350.608 188.747 350.036C189.463 349.464 191.609 349.893 193.755 351.038C196.044 352.182 197.761 353.898 197.761 354.614C197.761 355.329 199.049 356.044 200.622 356.044C202.196 356.044 203.484 356.759 203.484 357.475C203.484 358.19 204.056 358.619 204.915 358.19C205.63 357.761 206.631 358.476 207.061 359.62C207.49 360.765 208.348 361.48 209.207 361.051C209.922 360.622 210.637 361.051 210.637 361.766C210.637 362.481 211.067 362.91 211.639 362.481C212.354 362.195 213.928 363.196 215.216 364.627C216.646 366.2 218.363 367.202 219.222 366.773C219.937 366.343 220.939 367.059 221.368 368.203C221.797 369.347 222.512 370.063 223.085 369.634C223.8 369.204 225.946 370.492 228.092 372.494C230.381 374.497 232.098 375.785 232.098 375.355C232.098 374.926 233.815 375.498 235.961 376.643C239.538 378.359 240.969 378.359 248.551 375.928C253.273 374.354 263.288 371.922 270.727 370.206C278.167 368.632 286.465 367.345 288.898 367.345C291.473 367.488 293.333 367.059 293.047 366.343C292.761 365.771 308.069 365.342 326.955 365.485C352.421 365.628 365.155 366.2 375.17 368.06C382.61 369.347 394.485 372.065 401.638 374.068C408.649 376.071 418.95 379.361 424.53 381.22C429.966 383.223 441.555 388.23 450.283 392.521C458.867 396.669 472.172 404.251 479.612 409.257C487.052 414.264 496.924 421.273 501.359 425.136C505.937 428.855 510.516 431.859 511.374 431.859C512.376 431.859 518.957 427.424 526.111 421.845C533.264 416.267 540.275 410.688 541.991 409.257C543.565 407.97 545.139 406.683 545.568 406.54C545.854 406.396 547.285 405.967 548.573 405.538C550.147 404.966 550.719 403.965 550.147 402.82C549.384 401.676 549.622 401.438 550.862 402.105C551.863 402.82 557.729 400.389 565.026 396.24C572.037 392.378 580.335 388.087 583.625 386.942C587.059 385.655 589.777 383.938 589.777 383.223C589.777 382.508 590.493 382.079 591.208 382.508C591.924 382.937 597.646 381.506 603.655 379.218C609.807 377.072 615.101 375.069 615.53 374.64C615.96 374.211 617.247 373.782 618.392 373.782C619.536 373.639 626.976 372.208 634.845 370.492C642.714 368.918 658.166 366.916 669.182 366.057C680.199 365.199 698.369 364.627 709.385 364.913C720.545 365.199 729.415 365.628 729.272 366.057C728.986 366.487 732.563 367.202 737.284 367.774C741.863 368.489 746.584 368.489 747.442 367.774C748.682 367.106 748.921 367.345 748.158 368.489C747.442 369.92 749.016 370.635 753.738 371.207C757.314 371.636 761.034 371.493 761.893 370.921C762.894 370.349 763.18 370.492 762.465 371.207C761.75 371.922 766.328 373.925 773.195 375.785C784.784 378.932 785.213 378.932 790.078 376.5C792.796 375.069 795.801 373.21 796.516 372.208C797.231 371.207 798.805 370.349 799.95 370.063C801.094 369.777 803.24 368.489 804.671 367.059C806.102 365.771 807.962 365.056 808.963 365.628C810.108 366.343 810.394 366.2 809.822 365.342C809.249 364.484 813.399 361.48 819.121 358.19C824.844 355.043 829.852 352.611 830.424 352.897C831.139 353.04 831.569 352.468 831.569 351.753C831.569 351.038 832.284 350.608 832.999 351.038C833.715 351.467 834.43 350.894 834.43 349.893C834.43 349.035 834.716 348.606 835.145 349.178C835.575 349.893 836.862 349.321 838.007 348.177C839.151 347.032 840.868 346.317 841.584 346.746C842.299 347.175 843.014 346.746 843.014 346.031C843.014 345.316 843.73 344.887 844.445 345.316C845.16 345.745 845.876 345.602 845.876 344.887C845.876 344.314 848.022 342.741 850.883 341.31C853.602 340.023 856.606 339.165 857.322 339.594C858.037 340.023 858.752 339.594 858.752 338.879C858.752 338.163 859.468 337.734 860.183 338.163C860.898 338.592 861.614 338.02 861.614 337.019C861.614 336.161 861.9 335.732 862.329 336.304C862.758 337.019 864.189 336.447 865.477 335.159C866.907 334.015 868.91 333.3 869.769 333.729C870.77 334.158 871.772 334.015 871.915 333.3C872.058 332.585 875.062 330.868 878.639 329.581C882.359 328.15 886.222 326.72 887.367 326.29C888.511 325.861 890.228 325.718 890.943 325.861C891.659 326.004 893.662 325.003 895.093 323.573C897 321.856 897.525 321.713 896.666 323.143C895.665 324.86 895.951 324.86 898.24 323C899.671 321.713 903.105 319.996 905.537 318.995C908.112 318.137 910.973 317.708 911.689 318.137C912.404 318.566 913.12 318.137 913.12 317.422C913.12 316.706 913.549 316.134 914.121 316.277C914.836 316.277 916.267 315.991 917.412 315.562C918.556 314.99 922.133 313.702 925.281 312.558C928.428 311.414 931.719 310.412 932.577 310.412V310.412ZM256.42 449.883C249.696 451.885 240.11 455.461 234.96 457.893C229.809 460.182 219.508 466.19 212.068 471.053C204.628 476.06 193.326 485.215 187.031 491.366C180.592 497.66 172.58 506.529 169.004 511.25C165.427 515.97 160.276 523.695 157.415 528.415C154.553 533.136 150.404 540.86 147.972 545.581C145.683 550.301 141.82 559.885 139.388 567.038C137.099 574.19 133.951 586.349 132.52 594.216C130.946 603.658 130.088 615.96 129.945 630.693C129.945 646.428 130.803 656.871 132.52 666.455C134.094 673.893 136.812 684.908 138.672 690.773C140.675 696.638 144.395 706.365 147.114 712.23C149.832 718.095 156.413 729.395 161.707 737.263C167 745.13 176.729 757.289 183.454 764.299C190.178 771.308 200.479 780.606 206.345 785.04C212.211 789.475 220.223 795.197 224.229 797.629C228.092 800.203 236.247 804.352 242.113 807.07C247.979 809.787 257.994 813.65 264.289 815.652C270.584 817.655 280.743 820.23 286.752 821.517C292.904 822.805 304.492 824.235 312.504 824.664C321.089 825.236 333.536 824.95 342.263 823.949C350.562 822.948 363.438 820.659 370.878 818.656C378.317 816.654 389.906 812.648 396.631 809.787C403.355 806.783 414.658 800.632 421.668 795.912C428.679 791.191 439.981 782.179 446.563 775.885C453.144 769.591 459.725 762.725 461.156 760.436C463.874 756.574 463.874 756.431 460.441 745.417C458.581 739.409 456.292 729.538 455.433 723.673C453.859 714.089 454.002 712.516 456.148 709.369C457.579 707.366 462.587 700.929 467.308 695.064C472.029 689.199 480.184 679.901 485.335 674.609C490.486 669.173 496.209 663.88 498.212 662.879C500.215 661.877 504.221 660.733 507.225 660.161C510.086 659.732 515.237 660.018 518.671 660.876C523.106 662.02 526.969 664.738 533.979 671.891C539.13 677.183 549.002 688.198 555.869 696.495C563.595 705.65 568.317 712.802 568.317 714.662C568.317 716.521 567.315 722.672 566.171 728.251C564.883 733.973 562.737 742.699 561.163 747.562C559.16 753.713 558.731 757.432 559.589 759.006C560.305 760.436 566.028 766.444 572.18 772.595C578.332 778.603 588.49 787.186 594.785 791.621C601.08 796.198 611.667 802.492 618.392 805.925C625.116 809.215 636.705 813.936 644.145 816.368C651.584 818.656 662.601 821.517 668.467 822.519C674.333 823.663 688.783 824.521 700.658 824.378C715.824 824.378 725.696 823.663 734.28 821.803C741.004 820.373 751.592 817.655 757.887 815.652C764.182 813.793 776.486 808.643 785.07 804.352C793.655 800.06 805.959 792.765 812.254 788.044C818.549 783.324 829.423 773.883 836.433 767.017C843.301 760.007 852.457 749.565 856.606 743.7C860.755 737.835 866.478 728.823 869.196 723.673C872.058 718.524 876.207 709.941 878.496 704.362C880.785 698.783 884.362 687.912 886.365 680.044C888.368 672.177 890.8 659.016 891.802 650.72C892.803 642.137 893.09 629.263 892.66 620.68C892.088 612.383 890.657 600.224 889.37 593.501C888.082 586.778 885.364 575.907 883.074 569.183C880.928 562.46 876.779 552.161 874.061 546.296C871.343 540.431 865.047 529.559 860.326 522.264C855.462 515.112 846.591 503.811 840.582 497.517C834.43 491.08 824.129 481.925 817.834 477.061C811.396 472.341 800.379 465.332 793.512 461.612C786.501 458.036 774.626 453.173 767.186 450.741C759.747 448.452 748.73 445.591 742.864 444.59C736.998 443.446 722.834 442.587 711.388 442.587C699.943 442.587 685.779 443.589 679.913 444.59C674.047 445.591 664.032 448.166 657.737 450.026C651.441 452.028 639.853 456.749 631.984 460.611C624.115 464.473 612.24 471.626 605.515 476.632C598.791 481.782 587.631 491.938 580.478 499.234C573.324 506.672 563.452 518.831 558.445 526.269C553.437 533.708 545.282 548.299 540.275 558.455C535.41 568.611 529.401 582.773 527.112 589.925C524.823 597.077 520.388 612.383 517.526 624.256C514.522 635.986 511.66 646.142 511.231 646.714C510.802 647.287 508.513 640.563 506.224 631.695C503.934 622.969 499.356 607.234 496.065 597.077C492.775 586.921 485.907 569.756 480.757 559.17C475.606 548.585 467.451 534.137 462.73 526.985C458.008 519.832 449.424 508.961 443.701 502.81C437.835 496.659 428.679 487.79 423.099 483.355C417.519 478.778 407.647 471.769 400.923 467.763C394.198 463.758 383.325 458.179 376.601 455.318C369.876 452.6 359.575 449.024 353.709 447.594C347.843 446.163 337.971 444.304 331.819 443.445C325.81 442.587 314.794 441.872 307.64 442.015C300.343 442.158 288.468 443.016 281.458 444.161C274.447 445.162 263.145 447.737 256.42 449.883V449.883Z" fill="#0097A4" fill-opacity="0.99" style="animation: 1.66667s linear 0s 1 normal forwards running motion-ainm-id-744_-0; stroke-dasharray: 0px, 5366.16px; stroke-dashoffset: 0px;"></path>
<path id="Vector_2" d="M325.81 826.238C322.662 826.524 318.084 826.524 315.795 826.238C313.506 825.952 315.938 825.666 321.518 825.666C327.098 825.666 328.958 825.952 325.81 826.238Z" fill="#004053" fill-opacity="0.99" style="animation: 1.66667s linear 0s 1 normal forwards running motion-ainm-id-744_-1; stroke-dasharray: 0px, 24.9718px; stroke-dashoffset: 0px;"></path>
<path id="Vector_3" d="M502.074 661.305C504.364 660.876 506.653 660.304 507.511 659.875C508.37 659.589 511.374 659.732 514.379 660.018C517.24 660.447 521.389 661.591 523.678 662.736C525.824 663.737 532.406 670.031 538.558 676.611C544.567 683.191 553.723 693.777 559.017 700.071C568.46 711.514 568.603 711.514 567.744 718.667C567.315 722.672 565.598 730.969 564.024 737.263C562.451 743.557 558.302 754.428 555.011 761.581C551.577 768.733 545.854 779.032 542.134 784.468C538.558 790.047 530.975 799.774 525.395 806.354C518.957 813.936 513.949 818.37 511.517 819.085C507.94 819.801 506.653 818.942 500.357 812.076C496.495 807.642 489.484 799.059 485.049 792.908C480.614 786.614 473.889 775.885 470.312 768.733C466.593 761.581 462.157 750.995 460.297 745.13C458.581 739.265 456.291 729.538 455.433 723.673C453.859 714.089 454.002 712.516 456.148 709.369C457.436 707.366 463.874 699.356 470.312 691.488C476.751 683.62 485.764 673.75 490.199 669.745C494.635 665.597 499.928 661.734 502.074 661.305Z" fill="#FDA800" fill-opacity="0.99" style="animation: 1.66667s linear 0s 1 normal forwards running motion-ainm-id-744_-2; stroke-dasharray: 0px, 409.246px; stroke-dashoffset: 0px;"></path>
<path id="Vector_4" fill-rule="evenodd" clip-rule="evenodd" d="M698.512 507.817C702.089 507.673 708.956 508.103 713.821 508.675C718.685 509.39 722.405 510.248 721.976 510.821C721.689 511.536 722.548 511.536 723.979 511.107C725.266 510.677 731.275 511.679 737.141 513.395C743.007 515.112 751.162 518.259 755.025 520.119C759.031 522.121 766.042 526.413 770.763 529.703C775.484 532.85 783.21 539.43 787.932 544.15C792.653 548.871 799.521 557.311 803.24 562.746C806.96 568.325 811.968 578.195 814.4 584.919C816.975 591.642 819.121 598.651 819.551 600.654C819.837 602.656 820.838 607.091 821.697 610.667C822.698 614.243 823.413 625.115 823.27 634.985C823.27 649.146 822.555 655.727 819.694 666.455C817.834 673.893 813.828 684.908 810.823 690.773C807.819 696.638 803.527 704.362 801.094 707.939C798.662 711.515 793.082 718.095 788.79 722.815C784.355 727.393 776.915 733.973 772.194 737.263C767.472 740.696 759.174 745.703 753.594 748.421C748.015 751.282 738.429 755.001 732.134 756.717C722.691 759.435 716.825 760.007 699.227 760.007C683.06 760.007 675.477 759.435 668.467 757.576C663.316 756.145 654.16 752.569 648.151 749.708C641.712 746.704 637.563 743.843 638.136 742.985C638.708 742.127 638.422 741.984 637.277 742.556C636.276 743.271 632.699 741.697 628.407 738.694C624.544 735.976 621.253 732.972 621.253 732.256C621.253 731.541 620.109 730.683 618.821 730.397C617.39 730.111 611.81 724.818 606.517 718.524C599.792 710.799 594.499 702.646 589.777 692.919C586.058 685.051 581.765 674.037 580.335 668.601C578.189 660.59 577.616 653.295 577.616 632.267C577.616 612.383 578.046 605.803 579.333 605.374C580.335 605.088 580.907 604.087 580.335 603.085C579.905 602.227 581.05 597.221 582.624 592.071C584.341 586.921 588.204 577.909 591.351 572.044C594.499 566.179 600.794 556.595 605.515 550.874C610.237 545.295 618.821 537.141 624.544 532.85C630.124 528.558 637.993 523.552 641.999 521.406C645.861 519.403 649.724 518.259 650.297 518.831C650.869 519.403 651.298 519.117 651.298 518.402C651.298 517.687 656.163 515.541 662.315 513.681C668.467 511.822 677.623 509.819 682.774 509.247C687.925 508.532 694.935 507.96 698.512 507.817V507.817ZM630.124 568.039C627.548 570.614 624.401 575.334 623.256 578.481C621.825 581.915 621.11 587.064 621.539 591.356C621.825 595.933 623.399 600.654 625.974 604.516C628.121 607.949 631.984 611.954 634.416 613.528C636.991 615.101 641.999 616.818 645.575 617.247C649.295 617.819 654.446 617.39 657.736 616.389C660.884 615.387 665.605 612.956 668.324 610.81C670.899 608.807 674.333 604.659 675.763 601.655C677.48 598.508 678.482 593.358 678.482 588.495C678.482 584.203 677.766 578.911 676.908 576.622C676.193 574.476 673.76 570.9 671.614 568.754C669.468 566.466 665.319 563.462 662.315 561.888C659.453 560.458 654.589 559.17 651.584 559.17C648.723 559.313 643.715 560.172 640.568 561.316C637.42 562.46 632.699 565.607 630.124 568.039V568.039ZM327.241 508.532C335.11 508.818 346.412 510.248 352.278 511.822C358.144 513.252 367.158 516.399 372.308 518.688C377.459 520.977 385.471 525.411 390.192 528.701C394.914 531.848 402.926 538.285 407.933 542.863C412.941 547.44 419.808 555.165 423.099 559.885C426.533 564.606 431.254 572.474 433.686 577.337C436.118 582.344 439.409 591.07 440.983 596.648C442.414 602.37 444.417 612.24 445.275 618.534C446.133 624.829 446.42 635.128 445.847 641.422C445.418 647.716 444.13 657.014 443.129 662.164C441.984 667.313 439.695 675.61 437.692 680.76C435.832 685.909 432.828 692.776 431.111 696.066C429.537 699.499 427.391 701.931 426.676 701.501C425.817 701.072 425.531 701.788 425.96 702.932C426.389 704.076 425.674 705.364 424.53 705.793C423.385 706.222 422.67 707.223 423.099 707.939C423.528 708.654 419.522 713.946 414.085 719.525C408.792 725.247 400.637 732.686 395.915 736.119C391.194 739.695 382.323 745.131 376.171 748.135C370.162 751.282 359.861 755.144 353.28 756.86C343.551 759.578 337.971 760.15 320.803 760.007C304.063 759.864 297.768 759.292 288.611 756.717C282.316 755.001 271.729 750.709 265.005 747.276C258.28 743.843 248.408 737.12 242.828 732.543C237.249 727.822 232.957 723.388 233.1 722.386C233.386 721.528 232.813 721.099 232.098 721.528C231.24 721.957 227.377 717.523 223.371 711.801C219.365 706.222 213.785 697.067 211.21 691.488C208.491 685.909 205.058 676.325 203.341 670.031C201.195 662.307 200.05 652.58 199.478 639.991C199.049 625.973 199.478 618.105 201.338 607.806C202.625 600.368 205.344 590.068 207.347 584.919C209.207 579.769 213.356 571.472 216.36 566.323C219.365 561.173 225.946 552.59 230.81 547.154C235.818 541.719 243.83 534.566 248.551 531.276C253.273 527.843 259.711 523.838 262.859 522.264C266.006 520.548 269.011 519.689 269.726 520.262C270.298 520.834 270.727 520.405 270.727 519.403C270.727 518.545 272.73 516.972 275.02 516.256C277.309 515.541 279.884 515.112 280.742 515.541C281.458 515.97 282.316 515.684 282.459 514.969C282.602 514.254 287.324 512.68 292.904 511.536C298.626 510.391 305.351 509.104 308.069 508.675C310.788 508.246 319.372 508.246 327.241 508.532V508.532ZM351.277 571.615C348.129 575.716 346.269 580.007 345.697 584.489C345.125 588.352 345.554 593.787 346.412 596.648C347.271 599.652 350.132 604.373 352.564 607.377C355.14 610.238 359.861 613.671 363.009 615.101C366.156 616.532 370.735 617.819 373.024 617.819C375.313 617.819 379.891 617.104 383.039 616.246C386.329 615.244 391.194 612.24 394.628 608.664C398.347 604.945 401.209 600.368 402.497 596.362C403.927 591.07 403.927 588.495 402.353 582.058C401.209 577.194 398.777 572.33 396.058 569.327C393.626 566.609 388.905 563.319 385.471 561.745C382.18 560.315 377.03 559.17 374.025 559.17C371.164 559.313 365.87 560.744 362.293 562.46C358.717 564.177 353.852 568.325 351.277 571.615V571.615Z" fill="#004053" fill-opacity="0.99" style="animation: 1.66667s linear 0s 1 normal forwards running motion-ainm-id-744_-3; stroke-dasharray: 0px, 1948.67px; stroke-dashoffset: 0px;"></path>
<path id="Vector_5" d="M31.7977 160.786C48.6801 154.778 64.8473 149.056 67.5656 147.912C70.284 146.91 73.4316 146.052 74.29 145.909C75.7207 145.766 76.1499 152.632 76.1499 205.845L49.3955 194.259C34.5161 187.965 17.6336 180.812 11.7676 178.38C5.90171 175.806 0.751126 173.66 0.321911 173.374C-0.107304 173.088 -0.107304 172.659 0.321911 172.229C0.751126 171.943 14.9152 166.651 31.7977 160.786Z" fill="#004053" fill-opacity="0.99" style="animation: 1.66667s linear 0s 1 normal forwards running motion-ainm-id-744_-4; stroke-dasharray: 0px, 222.697px; stroke-dashoffset: 0px;"></path>
<path id="Vector_6" d="M77.2945 136.897C77.8668 136.325 84.1619 133.607 91.1725 130.889C98.183 128.028 105.05 126.026 106.195 126.169C108.055 126.455 108.484 135.753 110.487 264.494L114.493 270.502C116.782 273.936 119.358 278.942 120.359 281.66C121.218 284.378 121.933 290.1 121.933 294.105C121.933 298.396 120.788 303.832 119.358 306.693C116.925 311.7 116.925 311.843 120.788 315.705C122.791 317.851 126.225 323.144 128.228 327.435C130.374 331.726 133.522 342.455 135.382 351.038C137.385 359.62 139.817 374.497 141.104 383.938C142.249 393.379 143.68 405.252 144.109 410.402C144.681 415.552 145.683 424.134 146.398 429.713C146.97 435.292 147.686 441.872 147.686 444.304C147.686 448.452 147.114 449.167 142.392 450.741C138.386 452.171 123.936 452.601 89.7417 452.457C45.5326 452.457 42.2419 452.314 34.373 446.879L35.2314 433.289C35.8037 425.851 36.5191 416.839 36.8052 413.263C37.0913 409.687 37.8067 401.39 38.2359 394.667C38.8082 387.944 40.0959 376.357 41.2404 368.918C42.385 361.48 44.5311 350.608 46.1049 344.887C47.6787 339.308 50.2539 331.869 51.9708 328.436C53.6877 325.146 57.5506 319.853 60.5551 316.706C65.7057 311.557 66.1349 310.555 64.7042 306.979C63.9888 304.834 63.2735 300.399 63.2735 296.966C63.2735 293.676 64.275 287.382 65.5626 283.091C66.8503 278.799 69.7117 272.791 76.1499 264.494L76.0069 205.416C76.0069 173.088 76.0069 144.479 76.1499 142.19C76.1499 139.758 76.7222 137.469 77.2945 136.897Z" fill="#FDA800" fill-opacity="0.99" style="animation: 1.66667s linear 0s 1 normal forwards running motion-ainm-id-744_-5; stroke-dasharray: 0px, 796.746px; stroke-dashoffset: 0px;"></path>
<path id="Vector_7" d="M363.724 48.4944C393.197 38.4811 436.977 23.4612 461.013 15.1646C485.049 6.86786 506.223 0.00162878 508.226 0.00162878C510.229 -0.141418 539.559 9.1566 573.324 20.4573C607.089 31.7579 720.116 69.6652 824.415 104.712C928.714 139.615 1016.27 169.226 1024 172.659L1017.56 175.52C1013.98 177.093 978.217 191.541 938.157 207.705C898.097 223.726 847.593 243.896 787.216 268.071V323.573C787.216 354.042 786.787 378.932 786.072 378.932C785.499 378.932 779.777 377.501 773.195 375.642C766.328 373.782 761.75 371.922 762.465 371.207C763.18 370.492 762.894 370.349 761.75 370.778C760.891 371.35 757.171 371.493 753.594 371.064C749.016 370.492 747.442 369.92 748.158 368.632C748.921 367.393 748.682 367.154 747.442 367.917C746.584 368.489 741.863 368.489 737.284 367.917C732.563 367.202 728.986 366.487 729.272 366.057C729.415 365.628 720.545 365.199 709.385 364.913C698.369 364.627 680.199 365.199 669.182 366.057C658.166 366.916 642.714 368.918 634.845 370.492C626.976 372.208 619.536 373.639 618.392 373.782C617.247 373.782 615.959 374.211 615.53 374.64C615.101 375.069 609.807 377.072 603.655 379.361C597.646 381.506 591.923 382.937 591.208 382.508C590.493 382.079 589.777 382.508 589.777 383.223C589.777 383.938 587.059 385.655 583.625 386.942C580.335 388.087 572.036 392.378 565.026 396.24C557.729 400.389 551.863 402.82 550.862 402.248C549.622 401.485 549.383 401.724 550.146 402.963C550.719 403.965 550.146 404.966 548.573 405.538C547.285 405.967 546.14 406.11 546.14 405.967C546.14 405.824 544.567 407.112 542.564 408.685C540.561 410.402 533.264 416.267 526.11 421.846C518.957 427.424 512.376 431.859 511.374 431.859C510.516 431.859 505.937 428.855 501.359 425.136C496.924 421.273 487.052 414.264 479.612 409.257C472.172 404.251 459.01 396.669 450.282 392.521C441.555 388.23 430.109 383.223 424.53 381.22C418.95 379.361 408.649 376.071 401.638 374.068C394.628 372.065 382.609 369.348 375.17 368.06C365.155 366.201 352.421 365.628 326.955 365.485C308.069 365.342 292.76 365.771 293.047 366.487C293.333 367.059 291.473 367.488 289.041 367.345C286.465 367.345 278.167 368.632 270.727 370.206C263.288 371.922 253.273 374.354 248.551 375.785C243.83 377.215 238.822 378.216 237.392 377.93C235.103 377.501 234.96 373.782 234.96 267.355L231.812 265.925C229.952 265.21 217.219 260.06 203.484 254.624C189.749 249.189 173.439 242.608 167.287 239.89C161.134 237.316 156.127 234.741 156.27 234.169C156.27 233.453 155.698 233.31 154.839 233.739C153.981 234.169 144.252 230.592 133.092 225.729C121.79 220.865 111.775 216.86 110.916 216.717C109.486 216.574 109.056 207.419 109.056 135.753L112.204 135.18C114.064 134.894 133.236 128.457 154.839 120.733C176.443 113.151 220.223 97.8454 252.128 86.8308C284.033 75.8162 334.251 58.6507 363.724 48.4944Z" fill="#004053" fill-opacity="0.99" style="animation: 1.66667s linear 0s 1 normal forwards running motion-ainm-id-744_-6; stroke-dasharray: 0px, 2251.67px; stroke-dashoffset: 0px;"></path>
</g>
</g>
<style>
        @keyframes motion-ainm-id-744_-0{
        
            0%{
                stroke-dasharray: 0px, 5366.1552734375px;
                stroke-dashoffset: 0px;
            }
        
            50%{
                stroke-dasharray: 2683.07763671875px, 2683.07763671875px;
                stroke-dashoffset: -2683.07763671875px;
            }
        
            100%{
                stroke-dasharray: 5366.1552734375px, 0px;
                stroke-dashoffset: -5366.1552734375px;
            }
        
        }

        

        @keyframes motion-ainm-id-744_-1{
        
            0%{
                stroke-dasharray: 0px, 24.971847534179688px;
                stroke-dashoffset: 0px;
            }
        
            50%{
                stroke-dasharray: 12.485923767089844px, 12.485923767089844px;
                stroke-dashoffset: -12.485923767089844px;
            }
        
            100%{
                stroke-dasharray: 24.971847534179688px, 0px;
                stroke-dashoffset: -24.971847534179688px;
            }
        
        }

        

        @keyframes motion-ainm-id-744_-2{
        
            0%{
                stroke-dasharray: 0px, 409.24566650390625px;
                stroke-dashoffset: 0px;
            }
        
            50%{
                stroke-dasharray: 204.62283325195312px, 204.62283325195312px;
                stroke-dashoffset: -204.62283325195312px;
            }
        
            100%{
                stroke-dasharray: 409.24566650390625px, 0px;
                stroke-dashoffset: -409.24566650390625px;
            }
        
        }

        

        @keyframes motion-ainm-id-744_-3{
        
            0%{
                stroke-dasharray: 0px, 1948.6708984375px;
                stroke-dashoffset: 0px;
            }
        
            50%{
                stroke-dasharray: 974.33544921875px, 974.33544921875px;
                stroke-dashoffset: -974.33544921875px;
            }
        
            100%{
                stroke-dasharray: 1948.6708984375px, 0px;
                stroke-dashoffset: -1948.6708984375px;
            }
        
        }

        

        @keyframes motion-ainm-id-744_-4{
        
            0%{
                stroke-dasharray: 0px, 222.697265625px;
                stroke-dashoffset: 0px;
            }
        
            50%{
                stroke-dasharray: 111.3486328125px, 111.3486328125px;
                stroke-dashoffset: -111.3486328125px;
            }
        
            100%{
                stroke-dasharray: 222.697265625px, 0px;
                stroke-dashoffset: -222.697265625px;
            }
        
        }

        

        @keyframes motion-ainm-id-744_-5{
        
            0%{
                stroke-dasharray: 0px, 796.7456665039062px;
                stroke-dashoffset: 0px;
            }
        
            50%{
                stroke-dasharray: 398.3728332519531px, 398.3728332519531px;
                stroke-dashoffset: -398.3728332519531px;
            }
        
            100%{
                stroke-dasharray: 796.7456665039062px, 0px;
                stroke-dashoffset: -796.7456665039062px;
            }
        
        }

        

        @keyframes motion-ainm-id-744_-6{
        
            0%{
                stroke-dasharray: 0px, 2251.671142578125px;
                stroke-dashoffset: 0px;
            }
        
            50%{
                stroke-dasharray: 1125.8355712890625px, 1125.8355712890625px;
                stroke-dashoffset: -1125.8355712890625px;
            }
        
            100%{
                stroke-dasharray: 2251.671142578125px, 0px;
                stroke-dashoffset: -2251.671142578125px;
            }
        
        }

        </style></svg>
