<svg width="1024" height="1025" viewBox="0 0 1024 1025" fill="none" xmlns="http://www.w3.org/2000/svg">
<path d="M539.996 32.6187C540.644 32.8367 541.293 33.0547 541.961 33.2793C544.123 34.0088 546.28 34.7513 548.438 35.4937C550.022 36.0311 551.607 36.5677 553.193 37.1035C557.549 38.5786 561.902 40.0651 566.253 41.5543C570.89 43.1401 575.529 44.7191 580.168 46.2983C581.129 46.6255 582.09 46.9527 583.08 47.2898C585.074 47.9684 587.067 48.647 589.061 49.3255C591.117 50.0255 593.173 50.7257 595.229 51.4262C613.583 57.679 631.963 63.8526 650.357 69.987C652.373 70.6598 654.39 71.3331 656.406 72.0065C668.829 76.1549 681.256 80.2894 693.717 84.3228C729.857 96.024 765.879 108.081 801.913 120.107C811.214 123.212 820.516 126.314 829.818 129.416C848.88 135.774 867.94 142.133 887 148.494C887 149.154 887 149.814 887 150.494C886.056 150.838 885.113 151.183 884.141 151.537C872.514 155.783 860.89 160.038 849.268 164.297C845.962 165.507 842.656 166.717 839.35 167.927C812.357 177.805 785.411 187.792 758.562 198.056C757.387 198.505 756.212 198.955 755 199.418C751.668 200.693 748.336 201.97 745.004 203.248C744.033 203.62 743.063 203.992 742.063 204.375C736.681 206.444 731.326 208.565 725.996 210.768C724 211.494 724 211.494 722 211.494C722.33 239.874 722.66 268.254 723 297.494C727.29 294.194 731.58 290.894 736 287.494C758.843 270.969 784.61 258.007 810.625 247.306C811.794 246.824 812.963 246.342 814.167 245.845C815.259 245.405 816.351 244.966 817.477 244.513C818.447 244.122 819.417 243.732 820.417 243.329C823 242.494 823 242.494 827 242.494C828.525 248.424 829.329 253.936 829.25 260.056C829.242 260.867 829.234 261.678 829.225 262.514C828.62 296.951 822.639 335.413 805.137 365.72C803.723 368.406 803.723 368.406 804.59 371.009C806.178 373.807 807.826 376.535 809.562 379.244C828.107 408.958 838.699 441.793 843 476.494C843.102 477.31 843.205 478.127 843.31 478.968C847.775 520.337 843.231 564.706 827.853 603.468C826.94 606.707 826.975 608.327 828 611.494C829.125 613.407 830.322 615.278 831.562 617.119C843.986 636.467 850.344 659.997 854 682.494C854.179 683.542 854.358 684.59 854.542 685.67C856.273 696.923 856.359 708.068 856.312 719.431C856.31 720.432 856.307 721.432 856.304 722.463C856.088 773.418 840.938 819.195 818.625 864.681C818.055 865.856 818.055 865.856 817.473 867.054C814.833 872.31 811.668 876.9 808 881.494C802.167 881.152 799.212 879.569 795.285 875.435C794.785 874.931 794.284 874.426 793.768 873.907C792.72 872.845 791.679 871.777 790.645 870.701C789.057 869.05 787.448 867.422 785.834 865.796C778 857.821 778 857.821 778 855.494C777.34 855.494 776.68 855.494 776 855.494C775.743 856.203 775.487 856.912 775.223 857.642C766.037 879.065 743.986 899.329 726 913.494C724.978 914.31 723.956 915.126 722.902 915.966C707.189 928.389 689.965 938.266 671.938 946.931C671.057 947.356 670.176 947.782 669.269 948.22C657.127 953.959 657.127 953.959 652.051 952.849C651.147 952.464 650.244 952.078 649.312 951.681C644.665 949.755 640.713 948.429 635.672 948.177C634.473 948.114 634.473 948.114 633.25 948.05C632.013 947.991 632.013 947.991 630.75 947.931C629.91 947.888 629.069 947.845 628.203 947.8C626.136 947.695 624.068 947.594 622 947.494C625.298 944.859 628.801 942.893 632.5 940.869C660.711 925.015 682.822 900.953 696 871.494C696.482 870.417 696.964 869.341 697.461 868.232C710.863 835.863 708.717 798.172 695.537 766.139C687.549 747.721 676.81 732.046 663 717.494C662.331 716.784 662.331 716.784 661.649 716.061C650.728 704.544 638.799 695.41 625 687.494C624.398 687.139 623.796 686.785 623.176 686.42C603.647 675.015 582.188 668.387 560 664.494C558.96 664.299 558.96 664.299 557.9 664.1C535.746 660.076 509.932 660.805 488 665.494C486.826 665.743 486.826 665.743 485.628 665.998C452.727 673.281 422.117 688.91 398 712.494C396.996 713.437 395.991 714.38 394.984 715.322C367.192 741.721 350.587 779.89 349.598 818.074C349.465 830.638 350.702 842.372 354 854.494C354.182 855.169 354.364 855.845 354.551 856.541C359.87 875.587 370.131 892.631 383 907.494C383.428 907.99 383.857 908.487 384.298 908.999C390.611 916.271 397.296 922.677 405 928.494C405.53 928.898 406.059 929.303 406.605 929.72C415.269 936.299 424.282 941.621 434 946.494C434 946.824 434 947.154 434 947.494C432.924 947.519 431.847 947.545 430.738 947.572C421.204 947.905 413.052 949.275 404 952.494C400.827 953.553 399.272 953.515 396.234 952.123C395.518 951.8 394.801 951.477 394.062 951.145C393.299 950.786 392.536 950.426 391.75 950.056C390.551 949.505 390.551 949.505 389.328 948.942C386.878 947.807 384.438 946.653 382 945.494C381.302 945.167 380.604 944.839 379.885 944.502C342.642 926.975 310.335 899.881 286.438 866.431C285.9 865.68 285.362 864.928 284.808 864.154C284.313 863.45 283.818 862.746 283.309 862.021C282.863 861.389 282.418 860.758 281.959 860.107C281 858.494 281 858.494 281 856.494C277.735 859.739 274.523 863.025 271.348 866.357C269.586 868.174 267.825 869.99 266.063 871.806C265.181 872.738 264.3 873.669 263.393 874.628C262.532 875.508 261.672 876.388 260.785 877.294C260.011 878.101 259.236 878.907 258.438 879.737C256 881.494 256 881.494 252.951 882.069C250 881.494 250 881.494 247.83 879.364C244.529 874.187 241.741 868.764 238.938 863.306C238.607 862.664 238.277 862.022 237.936 861.361C221.913 830.12 211.26 798.016 205 763.494C204.813 762.488 204.626 761.483 204.433 760.447C195.783 711.864 202.256 656.048 228 613.494C228.565 612.85 229.129 612.207 229.711 611.545C231.249 609.573 231.249 609.573 230.736 607.228C230.304 606.025 230.304 606.025 229.863 604.798C229.561 603.916 229.259 603.034 228.948 602.125C228.635 601.257 228.322 600.388 228 599.494C227.528 598.04 227.063 596.585 226.605 595.126C226.375 594.401 226.145 593.676 225.907 592.929C206.945 532.067 206.971 463.962 234 405.494C234.483 404.444 234.483 404.444 234.977 403.374C239.284 394.142 244.295 385.486 249.801 376.919C250.172 376.323 250.544 375.726 250.927 375.111C252 373.494 252 373.494 254.063 371.138C255.228 367.851 254.695 367.084 253.324 363.955C252.467 362.248 251.587 360.553 250.688 358.869C249.812 357.171 248.94 355.47 248.074 353.767C247.48 352.644 247.48 352.644 246.874 351.499C246 349.494 246 349.494 246 346.494C247.059 346.472 247.059 346.472 248.14 346.449C251.344 346.375 254.547 346.278 257.75 346.181C258.861 346.159 259.972 346.136 261.117 346.113C262.722 346.06 262.722 346.06 264.359 346.005C265.836 345.966 265.836 345.966 267.343 345.926C270.399 345.429 271.788 344.635 274 342.494C277.467 332.094 273.326 316.539 272.008 305.758C271.689 303.129 271.384 300.499 271.08 297.869C269.732 286.556 267.69 275.564 265 264.494C270.928 266.367 276.193 268.993 281.688 271.869C282.701 272.399 283.715 272.929 284.759 273.475C295.861 279.365 306.659 285.839 316.82 293.248C317.405 293.671 317.99 294.094 318.593 294.53C320.123 295.65 321.633 296.797 323.141 297.947C326.484 300.049 326.484 300.049 333 299.494C333 270.454 333 241.414 333 211.494C329.7 210.504 326.4 209.514 323 208.494C320.099 207.426 317.226 206.337 314.355 205.193C313.559 204.88 312.762 204.566 311.942 204.243C310.237 203.573 308.534 202.901 306.831 202.227C302.302 200.435 297.768 198.658 293.234 196.88C291.846 196.336 291.846 196.336 290.429 195.78C275.341 189.874 260.164 184.202 245 178.494C245 160.344 245 142.194 245 123.494C251.292 120.977 257.48 118.572 263.898 116.462C264.718 116.19 265.537 115.918 266.382 115.638C268.134 115.056 269.887 114.476 271.641 113.897C274.441 112.972 277.24 112.044 280.038 111.114C284.803 109.533 289.569 107.954 294.334 106.376C312.984 100.201 331.616 93.9791 350.207 87.6293C380.015 77.4545 409.853 67.3689 439.715 57.3541C447.94 54.5953 456.162 51.8293 464.379 49.0471C471.69 46.572 479.004 44.1095 486.324 41.6624C490.158 40.3802 493.99 39.092 497.817 37.7883C501.379 36.5749 504.947 35.3786 508.52 34.1951C510.439 33.5547 512.351 32.8965 514.264 32.2376C523.906 29.0733 530.322 29.3233 539.996 32.6187Z" fill="#008794"/>
<path d="M760.7 381.014C785.385 403.7 802.654 436.816 805 470.494C805.614 486.867 806.042 503.515 802 519.494C801.71 520.668 801.71 520.668 801.414 521.867C792.248 557.88 769.717 590.326 737.82 609.826C725.835 616.874 713.365 621.744 700 625.494C698.737 625.855 697.473 626.215 696.172 626.587C663.769 634.162 626.324 627.446 598.04 610.306C593.841 607.6 589.889 604.623 586 601.494C585.403 601.015 584.806 600.536 584.191 600.043C574.727 592.367 566.586 584.052 559 574.494C558.466 575.558 557.933 576.623 557.383 577.72C550.635 590.957 543.023 602.657 532.813 613.505C530.844 615.565 530.844 615.565 529 618.494C527 618.494 527 618.494 525.625 617.201C516.738 606.839 508.907 596.271 502 584.494C501.316 583.372 501.316 583.372 500.617 582.228C498.926 579.414 498 577.84 498 574.494C495.222 577.215 492.536 579.979 489.941 582.876C472.515 602.262 451.606 616.47 426.438 623.806C425.612 624.049 424.786 624.291 423.936 624.541C390.152 633.87 353.732 629.304 323.144 612.539C317.422 609.277 312.148 605.592 307 601.494C306.239 600.893 306.239 600.893 305.462 600.28C286.166 584.93 271.99 566.051 262 543.494C261.725 542.884 261.449 542.275 261.166 541.647C248.094 512.124 246.438 475.27 256 444.494C256.23 443.752 256.46 443.01 256.697 442.246C268.299 406.215 293.436 376.8 327 359.494C336.254 355.067 346.048 351.929 356 349.494C356.688 349.314 357.377 349.135 358.086 348.95C365.259 347.267 372.381 347.188 379.712 347.233C381.799 347.244 383.884 347.233 385.971 347.22C397.918 347.206 409.305 348.61 420.75 352.119C421.598 352.378 422.446 352.637 423.319 352.905C461.637 365.085 489.896 393.891 508.266 428.923C516.708 445.705 523.105 463.381 528 481.494C528.261 480.679 528.522 479.865 528.791 479.025C538.768 448.06 538.768 448.06 546 433.494C546.349 432.78 546.698 432.066 547.057 431.33C552.142 421.006 557.981 411.607 565 402.494C565.706 401.563 566.413 400.632 567.141 399.673C588.083 373.069 618.18 352.199 652.395 347.759C653.254 347.672 654.114 347.584 655 347.494C655.87 347.385 656.74 347.277 657.637 347.165C695.429 342.973 732.516 355.816 760.7 381.014Z" fill="#FDFEFE"/>
<path d="M540.996 33.1123C541.644 33.3303 542.293 33.5483 542.961 33.7729C545.123 34.5024 547.28 35.2449 549.438 35.9873C551.022 36.5248 552.607 37.0613 554.193 37.5972C558.549 39.0722 562.902 40.5587 567.253 42.048C571.89 43.6337 576.529 45.2127 581.168 46.792C582.129 47.1192 583.09 47.4463 584.08 47.7834C586.074 48.4621 588.067 49.1407 590.061 49.8192C592.117 50.5191 594.173 51.2193 596.229 51.9198C614.583 58.1727 632.963 64.3463 651.357 70.4807C653.373 71.1534 655.39 71.8267 657.406 72.5002C669.829 76.6486 682.256 80.783 694.717 84.8164C730.857 96.5177 766.879 108.575 802.913 120.601C812.214 123.705 821.516 126.808 830.818 129.91C849.88 136.267 868.94 142.626 888 148.987C888 149.647 888 150.307 888 150.987C887.056 151.332 886.113 151.676 885.141 152.031C873.514 156.276 861.89 160.532 850.268 164.79C846.962 166.001 843.656 167.211 840.35 168.42C813.357 178.299 786.411 188.286 759.562 198.55C758.387 198.999 757.212 199.448 756 199.911C752.668 201.186 749.336 202.463 746.004 203.741C745.033 204.113 744.063 204.485 743.063 204.869C737.681 206.938 732.326 209.059 726.996 211.262C725 211.987 725 211.987 723 211.987C723 240.697 723 269.407 723 298.987C709.712 297.88 709.712 297.88 704.137 297.233C654.958 291.801 604.949 295.797 560 317.987C559.335 318.313 558.671 318.64 557.986 318.976C549.749 323.066 542.162 327.722 534.707 333.104C532.506 334.635 530.433 335.884 528 336.987C527.352 336.416 526.703 335.845 526.035 335.257C489.345 304.931 437.03 294.846 390.625 294.737C389.94 294.736 389.255 294.734 388.55 294.732C375.195 294.73 362.214 296.05 349 297.987C344.05 298.647 339.1 299.307 334 299.987C334 270.947 334 241.907 334 211.987C330.7 210.997 327.4 210.007 324 208.987C321.099 207.919 318.226 206.83 315.355 205.687C314.559 205.373 313.762 205.06 312.942 204.737C311.237 204.066 309.534 203.394 307.831 202.72C303.302 200.929 298.768 199.151 294.234 197.374C293.309 197.011 292.383 196.648 291.429 196.274C276.341 190.368 261.164 184.696 246 178.987C246 160.837 246 142.687 246 123.987C252.292 121.47 258.48 119.066 264.898 116.956C265.718 116.684 266.537 116.412 267.382 116.131C269.134 115.55 270.887 114.969 272.641 114.39C275.441 113.466 278.24 112.537 281.038 111.608C285.803 110.026 290.569 108.448 295.334 106.87C313.984 100.694 332.616 94.4727 351.207 88.123C381.015 77.9481 410.853 67.8626 440.715 57.8478C448.94 55.089 457.162 52.3229 465.379 49.5408C472.69 47.0657 480.004 44.6032 487.324 42.1561C491.158 40.8738 494.99 39.5856 498.817 38.2819C502.379 37.0685 505.947 35.8722 509.52 34.6888C511.439 34.0484 513.351 33.3901 515.264 32.7313C524.906 29.567 531.322 29.817 540.996 33.1123Z" fill="#003C54"/>
<path d="M525.125 661.244C525.877 661.243 526.629 661.242 527.404 661.242C575.318 661.31 622.857 677.005 657.482 711.011C658.985 712.479 660.513 713.917 662.047 715.353C689.006 740.942 705.879 777.368 707.254 814.501C707.59 828.308 706.629 841.156 703 854.494C702.818 855.169 702.636 855.845 702.449 856.541C692.088 893.641 664.034 923.872 631.172 942.72C625.331 945.972 619.561 948.748 613.25 950.994C605.884 953.664 600.024 958.03 594.121 963.111C583.54 970.009 566.235 970.072 554 971.494C553.224 971.592 552.448 971.689 551.648 971.79C544.03 972.674 536.411 972.694 528.75 972.681C528.044 972.68 527.338 972.679 526.611 972.678C509.493 972.629 492.942 971.199 476.062 968.306C474.966 968.134 473.869 967.963 472.739 967.786C465.327 966.405 461.844 964.138 457 958.494C452.212 954.866 447.246 952.452 441.5 950.744C428.083 946.577 415.779 938.341 405 929.494C404.173 928.825 404.173 928.825 403.33 928.143C373.373 903.813 354.735 872.755 349 834.494C347.242 804.321 352.865 775.863 368 749.494C368.568 748.497 368.568 748.497 369.148 747.48C374.84 737.638 381.256 728.81 389 720.494C389.612 719.832 390.225 719.171 390.855 718.489C405.269 703.088 421.263 691.136 440 681.494C441.151 680.892 442.302 680.29 443.488 679.669C461.255 670.875 480.415 665.331 500 662.494C500.669 662.392 501.338 662.29 502.027 662.186C509.684 661.169 517.415 661.25 525.125 661.244Z" fill="#FEFEFE"/>
<path d="M810.938 605.681C812.111 605.621 813.285 605.56 814.494 605.498C822.715 605.44 822.715 605.44 826.235 608.326C828.066 610.628 829.555 612.935 831 615.494C831.699 616.576 832.397 617.659 833.117 618.775C849.995 649.679 856.678 684.894 856.375 719.806C856.367 721.285 856.367 721.285 856.359 722.793C856.038 773.604 840.874 819.326 818.625 864.681C818.245 865.464 817.865 866.247 817.473 867.054C814.833 872.31 811.668 876.9 808 881.494C802.167 881.152 799.212 879.569 795.285 875.435C794.785 874.931 794.284 874.426 793.768 873.907C792.72 872.845 791.679 871.777 790.645 870.701C789.057 869.05 787.448 867.422 785.834 865.796C778 857.821 778 857.821 778 855.494C777.34 855.494 776.68 855.494 776 855.494C774.284 853.553 772.698 851.609 771.125 849.556C770.642 848.931 770.159 848.305 769.661 847.661C760.088 835.167 751.246 822.486 744 808.494C743.66 807.845 743.32 807.197 742.97 806.529C734.569 790.296 728.384 772.462 725 754.494C724.809 753.559 724.619 752.624 724.422 751.662C718.362 720.71 720.061 684.8 735 656.494C735.427 655.622 735.853 654.751 736.293 653.853C746.409 634.018 762.517 619.155 783 610.494C784.443 609.873 784.443 609.873 785.914 609.24C794.099 606.325 802.309 605.928 810.938 605.681Z" fill="#003C54"/>
<path d="M267.875 608.119C269.94 608.847 271.985 609.637 274 610.494C275.027 610.929 276.055 611.365 277.113 611.814C284.372 615.19 290.704 619.581 297 624.494C297.929 625.192 298.859 625.891 299.816 626.611C300.537 627.232 301.258 627.854 302 628.494C302 629.154 302 629.814 302 630.494C303.485 630.989 303.485 630.989 305 631.494C326.603 653.048 334.155 686.806 334.248 716.152C334.249 716.863 334.249 717.574 334.25 718.306C334.251 719.034 334.252 719.762 334.253 720.512C334.242 732.714 333.473 744.513 331 756.494C330.791 757.524 330.791 757.524 330.578 758.575C329.591 763.274 328.367 767.891 327 772.494C326.763 773.292 326.526 774.091 326.282 774.914C315.343 811.026 295.125 840.735 269.444 867.957C268.439 869.027 267.44 870.102 266.446 871.183C264.876 872.885 263.285 874.566 261.688 876.244C261.208 876.77 260.729 877.296 260.235 877.838C257.85 880.294 256.274 881.437 252.895 882.134C249.012 881.275 248.288 879.691 246 876.494C243.471 872.193 241.217 867.743 238.938 863.306C238.607 862.664 238.277 862.022 237.936 861.361C221.913 830.12 211.26 798.016 205 763.494C204.813 762.488 204.626 761.483 204.433 760.447C195.556 710.592 202.522 653.035 230.176 610.013C236.083 601.854 258.988 605.701 267.875 608.119Z" fill="#003C54"/>
<path d="M445.687 416.806C461.959 430.669 475.013 450.782 477 472.494C478.583 498.659 475.193 522.804 458 543.494C457.288 544.356 456.577 545.218 455.844 546.107C444.89 558.816 431.869 567.216 416 572.494C415.051 572.816 414.102 573.138 413.125 573.47C391.103 579.737 367.772 575.334 347.996 564.657C342.56 561.488 337.747 557.601 333 553.494C332.327 552.921 331.654 552.349 330.961 551.759C316.441 538.366 306.021 516.253 304.823 496.588C304.314 471.477 307.499 449.394 324 429.494C325.033 428.217 325.033 428.217 326.086 426.915C356.411 391.226 409.621 388.364 445.687 416.806Z" fill="#00263D"/>
<path d="M717 414.494C720.49 417.349 723.784 420.333 727 423.494C728.03 424.505 728.03 424.505 729.082 425.537C745.217 442.499 752.583 465.603 752.183 488.708C751.082 511.408 743.322 531.644 728 548.494C727.399 549.187 726.798 549.881 726.18 550.595C712.739 565.2 692.331 574.458 672.622 575.636C660.405 576.089 649.602 575.662 638 571.494C636.957 571.131 635.914 570.769 634.84 570.396C614.317 562.584 596.35 545.481 587.116 525.589C577.071 502.34 575.618 477.151 584.508 453.345C593.251 431.327 609.873 413.416 631.631 403.822C660.04 392.185 692.584 395.744 717 414.494Z" fill="#00263D"/>
<path d="M245 117.494C245 137.624 245 157.754 245 178.494C246.98 178.824 248.96 179.154 251 179.494C252.857 180.1 254.696 180.762 256.517 181.468C257.577 181.876 258.637 182.284 259.729 182.705C260.866 183.149 262.004 183.594 263.176 184.052C264.972 184.747 264.972 184.747 266.804 185.456C269.997 186.691 273.188 187.934 276.378 189.178C278.904 190.162 281.433 191.14 283.962 192.119C287.076 193.324 290.188 194.532 293.301 195.74C294.4 196.166 295.499 196.593 296.631 197.032C308.788 201.77 320.884 206.647 333 211.494C333 240.534 333 269.574 333 299.494C325.132 300.618 325.132 300.618 320.805 297.513C319.376 296.517 319.376 296.517 317.918 295.501C316.412 294.415 316.412 294.415 314.875 293.306C312.732 291.819 310.584 290.337 308.434 288.861C307.357 288.121 306.281 287.38 305.171 286.618C292.805 278.336 279.594 271.505 266 265.494C266.251 266.424 266.502 267.353 266.761 268.312C269.867 280.337 271.457 292.428 272.865 304.754C273.253 308.149 273.657 311.542 274.062 314.935C274.319 317.113 274.574 319.292 274.828 321.47C274.947 322.474 275.066 323.479 275.188 324.513C276.883 339.461 276.883 339.461 273 344.494C269.443 346.865 267.901 346.751 263.68 346.768C262.375 346.778 261.07 346.787 259.726 346.797C258.299 346.797 256.872 346.796 255.445 346.794C253.982 346.798 252.518 346.803 251.055 346.807C247.987 346.815 244.918 346.815 241.85 346.809C237.924 346.804 233.998 346.82 230.071 346.844C227.048 346.858 224.025 346.859 221.002 346.856C219.554 346.857 218.107 346.862 216.66 346.872C214.633 346.884 212.606 346.876 210.579 346.866C209.426 346.867 208.274 346.867 207.087 346.868C202.835 346.352 200.257 344.673 197.175 341.782C195.474 338.469 195.862 335.468 196.195 331.873C196.253 331.126 196.31 330.379 196.369 329.609C196.558 327.235 196.775 324.865 197 322.494C197.069 321.744 197.139 320.995 197.21 320.222C197.636 315.713 198.112 311.21 198.62 306.709C198.875 304.429 199.12 302.148 199.363 299.867C203.238 264.483 203.238 264.483 213.438 251.681C216.18 248.368 216.18 248.368 217.066 244.349C216.532 242.358 216.532 242.358 215.742 240.455C214.13 236.195 214.295 231.612 215.723 227.322C217.294 223.937 218.532 221.855 221.541 219.533C225.096 215.14 224.729 211.442 224.707 205.943C224.722 204.929 224.737 203.915 224.753 202.87C224.796 199.64 224.805 196.411 224.812 193.181C224.836 190.988 224.861 188.794 224.889 186.601C224.952 181.232 224.986 175.863 225 170.494C223.989 170.234 223.989 170.234 222.957 169.97C216.37 168.233 210.024 166.156 203.66 163.736C202.266 163.213 202.266 163.213 200.844 162.68C197.915 161.581 194.989 160.475 192.062 159.369C189.111 158.256 186.159 157.145 183.206 156.036C181.379 155.35 179.552 154.661 177.727 153.969C176.902 153.659 176.077 153.348 175.227 153.028C174.505 152.755 173.783 152.482 173.039 152.201C171.044 151.509 169.057 150.972 167 150.494C167 149.834 167 149.174 167 148.494C173.969 146.14 180.941 143.792 187.915 141.453C191.153 140.366 194.391 139.278 197.627 138.184C201.348 136.926 205.072 135.679 208.797 134.431C209.957 134.037 211.118 133.644 212.314 133.238C213.935 132.697 213.935 132.697 215.589 132.146C216.539 131.826 217.49 131.506 218.469 131.177C221 130.494 221 130.494 225 130.494C225 128.184 225 125.874 225 123.494C227.769 122.488 230.54 121.489 233.312 120.494C234.098 120.207 234.884 119.921 235.693 119.626C236.451 119.356 237.208 119.085 237.988 118.806C238.685 118.555 239.381 118.303 240.099 118.044C242 117.494 242 117.494 245 117.494Z" fill="#FEA300"/>
<path d="M576.908 130.487C579.625 130.932 582.341 131.356 585.064 131.76C596.373 133.456 607.509 135.635 618.657 138.175C619.512 138.368 620.366 138.561 621.246 138.76C655.887 146.626 690.944 156.034 723.983 169.185C724.051 178.325 723.851 187.431 723.481 196.563C723.433 197.795 723.386 199.027 723.336 200.296C723.22 203.291 723.101 206.286 722.98 209.28C723.745 208.929 724.51 208.577 725.298 208.215C727.993 207.276 727.993 207.276 731 208.278C725.236 211.285 725.236 211.285 722.98 211.285C722.98 240.063 722.98 268.841 722.98 298.491C722.318 298.491 721.657 298.491 720.975 298.491C720.644 273.683 720.313 248.874 719.973 223.313C718.318 222.652 716.664 221.99 714.96 221.309C713.492 220.494 712.043 219.644 710.613 218.764C709.803 218.269 708.993 217.774 708.158 217.264C707.301 216.738 706.444 216.212 705.562 215.67C668.476 193.285 626.989 178.656 584.056 172.679C580.471 172.171 576.896 171.614 573.318 171.057C544.661 166.817 515.134 166.393 486.39 170.188C484.812 170.382 484.812 170.382 483.203 170.579C448.759 174.839 415.282 183.107 383.133 196.249C382.44 196.526 381.748 196.803 381.035 197.089C366.295 203.02 351.892 210.569 338.696 219.417C337.018 220.306 337.018 220.306 334.01 220.306C334.01 246.438 334.01 272.57 334.01 299.494C333.679 299.494 333.348 299.494 333.008 299.494C333.008 270.385 333.008 241.276 333.008 211.285C332.015 210.954 331.023 210.623 330 210.283C330.992 209.786 330.992 209.786 332.005 209.28C332.005 196.38 332.005 183.479 332.005 170.188C345.563 164.539 345.563 164.539 351.495 162.556C352.46 162.233 352.46 162.233 353.444 161.902C355.506 161.213 357.571 160.531 359.636 159.851C360.358 159.612 361.08 159.374 361.824 159.128C398.319 147.082 435.394 137.23 473.358 131.095C475.292 130.779 475.292 130.779 477.266 130.457C510.26 125.263 543.934 125.073 576.908 130.487Z" fill="#00253C"/>
<path d="M245 178.494C249.08 179.072 252.678 179.979 256.517 181.468C257.577 181.876 258.637 182.284 259.729 182.705C260.866 183.149 262.004 183.594 263.176 184.052C264.373 184.515 265.571 184.979 266.804 185.456C269.997 186.691 273.188 187.934 276.378 189.178C278.904 190.162 281.433 191.14 283.962 192.119C287.076 193.324 290.188 194.532 293.301 195.74C294.4 196.166 295.499 196.593 296.631 197.032C308.788 201.77 320.884 206.647 333 211.494C333 240.534 333 269.574 333 299.494C325.132 300.618 325.132 300.618 320.805 297.513C319.852 296.849 318.9 296.186 317.918 295.502C316.914 294.777 315.91 294.053 314.875 293.306C312.729 291.816 310.579 290.332 308.426 288.853C307.349 288.112 306.272 287.372 305.163 286.609C300.58 283.544 295.862 280.765 291.062 278.056C290.209 277.569 289.355 277.082 288.476 276.581C284.432 274.305 280.371 272.163 276.16 270.212C267.108 265.955 262.31 262.972 258.324 253.412C257.19 250.395 257.19 250.395 254.77 248.482C254.186 247.826 253.602 247.17 253 246.494C253.23 243.646 253.23 243.646 254 240.494C254.582 232.722 254.863 226.802 250 220.494C248.706 219.429 248.706 219.429 247.386 218.343C244.139 214.466 244.35 211.807 244.512 206.912C244.519 206.097 244.526 205.283 244.533 204.444C244.561 201.856 244.624 199.269 244.687 196.681C244.713 194.921 244.735 193.162 244.756 191.402C244.811 187.098 244.897 182.796 245 178.494Z" fill="#FDFDEC"/>
<path d="M541 518.494C544.572 520.898 547.761 523.663 551 526.494C552.849 528.021 554.703 529.541 556.563 531.056C557.92 532.17 557.92 532.17 559.305 533.306C563.155 536.431 567.071 539.469 571 542.494C569.04 550.687 566.205 558.196 562.75 565.869C562.258 566.97 561.765 568.071 561.258 569.206C553.832 585.667 545.236 600.305 532.813 613.505C530.844 615.565 530.844 615.565 529 618.494C527 618.494 527 618.494 525.625 617.201C509.718 598.656 498.007 578.903 488.938 556.244C488.531 555.243 488.124 554.242 487.705 553.211C487.337 552.268 486.969 551.325 486.59 550.353C486.259 549.512 485.927 548.671 485.586 547.805C484.932 545.225 485.023 543.949 486 541.494C487.977 539.556 487.977 539.556 490.625 537.494C491.614 536.716 492.602 535.939 493.621 535.138C494.162 534.717 494.704 534.297 495.261 533.863C497.125 532.395 498.956 530.892 500.785 529.38C502.086 528.314 503.387 527.247 504.688 526.181C505.292 525.678 505.897 525.174 506.52 524.656C517.065 516.105 528.13 512.656 541 518.494Z" fill="#FEA300"/>
<path d="M655.953 953.001C666.557 959.231 674.334 968.169 677.746 980.103C678.849 985.121 679 989.225 679 994.494C647.32 994.494 615.64 994.494 583 994.494C583 983.209 583 983.209 584.875 978.056C585.223 977.067 585.571 976.079 585.93 975.06C587 972.494 587 972.494 589 969.494C580.142 970.119 580.142 970.119 571.312 971.056C566.541 971.624 561.798 971.584 557 971.494C557 971.164 557 970.834 557 970.494C557.659 970.393 558.318 970.293 558.997 970.19C581.175 967.863 581.175 967.863 599.902 957.302C615.19 944.121 638.695 944.19 655.953 953.001Z" fill="#FEA201"/>
<path d="M454.562 955.994C457.13 957.88 459.013 959.51 460.973 962.041C465.699 965.87 470.975 966.272 476.875 967.244C478.034 967.451 479.193 967.659 480.387 967.873C485.91 968.851 491.44 969.748 497 970.494C497 970.824 497 971.154 497 971.494C486.87 971.066 476.967 970.507 467 968.494C467.349 969.241 467.699 969.989 468.059 970.759C468.514 971.744 468.969 972.729 469.438 973.744C469.89 974.718 470.342 975.693 470.809 976.697C473.552 983.137 473 986.791 473 994.494C441.65 994.494 410.3 994.494 378 994.494C378 982.538 378.757 974.931 386 965.494C386.681 964.524 387.361 963.555 388.062 962.556C404.358 943.512 434.915 942.77 454.562 955.994Z" fill="#FEA200"/>
<path d="M435 435.494C439.641 439.698 443.567 444.2 444.211 450.587C444.495 457.15 443.035 461.191 438.625 466.181C433.866 470.373 430.074 472.125 423.875 472.869C417.846 472.285 412.339 470.184 408.285 465.521C404.708 459.973 403.446 455.138 404 448.494C406.306 441.31 410.985 436.702 417.5 433.119C423.703 431.568 429.514 432.245 435 435.494Z" fill="#FCFCFC"/>
<path d="M646 435.494C651.609 439.955 654.605 445.384 655.5 452.431C655.142 458.497 652.705 464.313 648.188 468.431C642.734 471.96 637.457 473.173 631 472.494C624.832 470.49 620.592 466.851 617 461.494C615.218 456.146 614.976 449.74 616.684 444.326C619.386 439.247 623.434 435.875 628.438 433.181C634.781 431.479 640.287 432.504 646 435.494Z" fill="#FBFCFC"/>
<path d="M225 130.494C225 143.694 225 156.894 225 170.494C217.67 168.495 210.718 166.42 203.66 163.736C202.266 163.213 202.266 163.213 200.844 162.68C197.915 161.581 194.989 160.475 192.062 159.369C189.111 158.256 186.159 157.145 183.206 156.036C181.379 155.35 179.552 154.661 177.727 153.969C176.902 153.659 176.077 153.348 175.227 153.028C174.144 152.619 174.144 152.619 173.039 152.201C171.044 151.509 169.057 150.972 167 150.494C167 149.834 167 149.174 167 148.494C173.969 146.14 180.941 143.792 187.915 141.453C191.153 140.366 194.391 139.278 197.627 138.184C201.348 136.926 205.072 135.679 208.797 134.431C209.957 134.037 211.118 133.644 212.314 133.238C213.394 132.878 214.475 132.517 215.589 132.146C216.539 131.826 217.49 131.506 218.469 131.177C221 130.494 221 130.494 225 130.494Z" fill="#013951"/>
<path d="M560 787.494C560.827 795.761 558.601 801.601 554 808.494C551.581 811.083 549.104 812.807 546 814.494C545.283 814.904 544.567 815.313 543.828 815.736C535.601 819.739 525.902 819.751 517.066 817.869C509.52 815.232 502.94 809.826 498.5 803.181C496.538 798.358 495.955 793.693 496 788.494C497 787.494 497 787.494 500.312 787.244C504.161 787.505 505.379 787.776 508 790.494C508.435 791.453 508.435 791.453 508.879 792.431C511.084 796.488 514.737 798.071 519 799.494C527.506 800.507 536.834 800.857 544 795.494C545.986 793.484 547.771 791.441 549.492 789.201C552.635 785.643 555.767 786.647 560 787.494Z" fill="#03374E"/>
<path d="M437.688 728.994C442.021 729.648 442.728 731.27 445.293 734.607C449.682 739.458 456.053 742.115 462.48 742.732C472.292 743.001 478.881 740.116 486 733.494C486.681 732.731 487.361 731.967 488.062 731.181C490 729.494 490 729.494 492.625 729.119C495 729.494 495 729.494 497 731.494C497.559 738.276 494.912 744.122 491 749.494C485.621 755.515 477.352 760.03 469.25 760.732C458.966 760.967 451.066 759.405 443.062 752.681C437.354 747.198 434.146 741.793 433.875 733.806C434.031 729.674 434.031 729.674 437.688 728.994Z" fill="#02364D"/>
<path d="M438.125 839.431C441.778 839.981 443.112 841.461 445.375 844.306C449.805 849.765 454.123 852.027 461.113 852.869C468.351 853.141 474.804 852.439 481 848.494C483.424 846.172 485.648 843.803 487.797 841.224C490 839.494 490 839.494 493.203 839.669C496 840.494 496 840.494 497 841.494C497.245 849.346 494.421 855.793 489.137 861.509C480.905 869.117 472.378 870.892 461.352 870.767C452.593 870.053 445.84 865.93 440 859.494C435.296 853.127 433.746 848.378 434 840.494C435 839.494 435 839.494 438.125 839.431Z" fill="#02354D"/>
<path d="M562 839.494C565.187 839.494 565.187 839.494 569 840.494C570.445 841.947 570.445 841.947 571.812 843.744C575.999 849.101 581.246 851.98 587.996 852.904C597.382 853.179 604.597 851.342 611.59 844.994C613.221 843.341 613.221 843.341 615 840.494C620.333 839.16 620.333 839.16 623 840.494C623.592 848.63 621.363 854.08 616.75 860.744C609.633 867.861 602.216 870.533 592.187 870.869C581.432 870.675 574.464 867.079 567 859.494C566.237 858.731 565.474 857.967 564.687 857.181C561.994 852.892 559.532 847.385 560.363 842.248C561 840.494 561 840.494 562 839.494Z" fill="#03364D"/>
<path d="M564.688 728.869C569.198 729.72 570.358 731.969 573.137 735.451C577.206 739.912 583.067 742.096 589.008 742.697C597.784 742.891 605.052 741.063 611.547 734.994C612.781 733.72 613.96 732.393 615.125 731.056C617 729.494 617 729.494 619.688 729.681C622 730.494 622 730.494 623 731.494C623.64 737.641 622.087 742.172 619 747.494C616.562 750.306 616.562 750.306 614 752.494C612.948 753.515 612.948 753.515 611.875 754.556C603.954 759.894 595.432 761.67 586 760.494C576.551 758.539 569.108 753.286 563.523 745.412C561.057 740.914 560.176 736.6 560 731.494C562 729.494 562 729.494 564.688 728.869Z" fill="#02364D"/>
<path d="M234 292.494C235.32 292.494 236.64 292.494 238 292.494C238 309.984 238 327.474 238 345.494C236.68 345.494 235.36 345.494 234 345.494C234 328.004 234 310.514 234 292.494Z" fill="#EE670B"/>
<path d="M252 292.494C253.32 292.494 254.64 292.494 256 292.494C256 309.324 256 326.154 256 343.494C254.68 343.494 253.36 343.494 252 343.494C252 326.664 252 309.834 252 292.494Z" fill="#EF670B"/>
<path d="M217 291.494C217.99 291.494 218.98 291.494 220 291.494C220 309.314 220 327.134 220 345.494C219.01 345.494 218.02 345.494 217 345.494C217 327.674 217 309.854 217 291.494Z" fill="#ED640C"/>
<path d="M592 963.494C592 964.484 592 965.474 592 966.494C589.568 968.926 588.481 968.91 585.125 969.345C584.139 969.474 583.153 969.603 582.137 969.736C581.102 969.862 580.066 969.988 579 970.119C577.996 970.253 576.992 970.387 575.957 970.525C569.603 971.33 563.402 971.669 557 971.494C557 971.164 557 970.834 557 970.494C557.669 970.388 558.339 970.283 559.029 970.174C562.124 969.683 565.218 969.182 568.312 968.681C569.891 968.433 569.891 968.433 571.502 968.179C578.48 967.041 585.219 965.498 592 963.494Z" fill="#187080"/>
<path d="M465 965.494C472.089 966.196 479.051 967.304 486.062 968.556C487.119 968.742 488.175 968.929 489.264 969.121C491.843 969.576 494.422 970.033 497 970.494C497 970.824 497 971.154 497 971.494C486.534 971.047 476.323 970.372 466 968.494C465.67 967.504 465.34 966.514 465 965.494Z" fill="#21747F"/>
<path d="M175 148.494C175 149.484 175 150.474 175 151.494C175.66 151.824 176.32 152.154 177 152.494C173.7 151.834 170.4 151.174 167 150.494C167 149.834 167 149.174 167 148.494C170.29 147.397 171.713 147.694 175 148.494Z" fill="#0E293D"/>
<path d="M426 64.4937C422.661 66.7197 419.901 67.604 416 68.4937C413.777 68.0444 413.777 68.0444 412 67.4937C413.577 66.7923 415.162 66.1081 416.75 65.4312C417.632 65.0483 418.513 64.6655 419.422 64.271C422.153 63.4477 423.369 63.5163 426 64.4937Z" fill="#0E243A"/>
<path d="M653 705.494C657.184 709.003 661.196 712.574 665 716.494C662 716.494 662 716.494 659.738 714.595C658.938 713.778 658.137 712.961 657.312 712.119C656.504 711.307 655.696 710.494 654.863 709.658C653 707.494 653 707.494 653 705.494Z" fill="#1D7B88"/>
<path d="M562 729.494C567.538 729.124 567.538 729.124 569.875 730.994C570.246 731.489 570.618 731.984 571 732.494C570.67 733.154 570.34 733.814 570 734.494C567.36 733.504 564.72 732.514 562 731.494C562 730.834 562 730.174 562 729.494Z" fill="#0B283C"/>
<path d="M465 965.494C466.48 965.607 467.959 965.735 469.438 965.869C470.261 965.938 471.085 966.008 471.934 966.08C472.956 966.285 472.956 966.285 474 966.494C474.33 967.154 474.66 967.814 475 968.494C472.03 968.494 469.06 968.494 466 968.494C465.67 967.504 465.34 966.514 465 965.494Z" fill="#13687D"/>
<path d="M435 729.494C436.32 729.494 437.64 729.494 439 729.494C438.67 730.484 438.34 731.474 438 732.494C437.01 732.164 436.02 731.834 435 731.494C435.33 734.134 435.66 736.774 436 739.494C434 737.494 434 737.494 433.812 733.931C434 730.494 434 730.494 435 729.494Z" fill="#091E33"/>
<path d="M224 163.494C224.33 163.494 224.66 163.494 225 163.494C225 165.804 225 168.114 225 170.494C222.03 169.504 219.06 168.514 216 167.494C218.862 166.063 220.934 166.894 224 167.494C224 166.174 224 164.854 224 163.494Z" fill="#06213F"/>
<path d="M276 331.494C277.461 334.416 278.341 336.418 279 339.494C278.01 339.824 277.02 340.154 276 340.494C276 337.524 276 334.554 276 331.494Z" fill="#0081AC"/>
</svg>
